<svg viewBox="0 0 300 300" xmlns="http://www.w3.org/2000/svg" xmlns:svg="http://www.w3.org/2000/svg">
 <g>
  <title>Layer 1</title>
  <g transform="translate(-147,-36.5) " id="svg_1">
   <path fill="#1044a2" id="svg_2"/>
  </g>
  <g transform="translate(-25.5,-86) scale(1.3388638496398926) " id="svg_3">
   <g id="svg_4">
    <g id="svg_5">
     <g id="a_4_">
      <path fill="#014bd1" d="m65.52633,91.14951l4.309,0l0,-11.227l-5.513,0c-7.952,-0.106 -13.766,1.685 -17.441,5.374c-3.676,3.635 -5.512,9.383 -5.512,17.243l0,25.021c0,3.421 -0.537,5.854 -1.605,7.297c-1.068,1.551 -3.043,2.594 -5.916,3.128c-0.133,0.053 -0.365,0.105 -0.701,0.159c-0.135,0.055 -0.334,0.106 -0.601,0.161l-0.803,0.16l0,11.628l2.104,0.883c5.014,0.803 7.521,4.063 7.521,9.784l0,26.544c0,13.953 7.414,20.93 22.252,20.93l3.509,-0.079c1.139,0 2.038,-0.214 2.705,-0.642l0,-11.146l-4.309,0c-3.945,0 -6.45,-0.669 -7.521,-2.006c-0.998,-1.229 -1.503,-4.332 -1.503,-9.302l0,-25.343c0,-4.17 -0.567,-7.324 -1.7,-9.462c-1.07,-2.3 -3.043,-4.411 -5.917,-6.336c2.941,-2.458 4.946,-4.758 6.017,-6.897c1.065,-2.458 1.601,-5.506 1.601,-9.141l0.102,-27.989c0,-3.743 0.535,-6.095 1.604,-7.057c1.068,-1.122 3.509,-1.685 7.318,-1.685z" class="color c1" id="svg_6"/>
     </g>
    </g>
   </g>
  </g>
  <g transform="translate(25.5,-86) scale(-1.3388638496398926,1.3388638496398926) " id="svg_7">
   <g id="svg_8">
    <g id="svg_9">
     <g id="a_4_">
      <path fill="#014bd1" d="m-158.54425,91.14951l4.309,0l0,-11.227l-5.513,0c-7.952,-0.106 -13.766,1.685 -17.441,5.374c-3.676,3.635 -5.512,9.383 -5.512,17.243l0,25.021c0,3.421 -0.537,5.854 -1.605,7.297c-1.068,1.551 -3.043,2.594 -5.916,3.128c-0.133,0.053 -0.365,0.105 -0.701,0.159c-0.135,0.055 -0.334,0.106 -0.601,0.161l-0.803,0.16l0,11.628l2.104,0.883c5.014,0.803 7.521,4.063 7.521,9.784l0,26.544c0,13.953 7.414,20.93 22.252,20.93l3.509,-0.079c1.139,0 2.038,-0.214 2.705,-0.642l0,-11.146l-4.309,0c-3.945,0 -6.45,-0.669 -7.521,-2.006c-0.998,-1.229 -1.503,-4.332 -1.503,-9.302l0,-25.343c0,-4.17 -0.567,-7.324 -1.7,-9.462c-1.07,-2.3 -3.043,-4.411 -5.917,-6.336c2.941,-2.458 4.946,-4.758 6.017,-6.897c1.065,-2.458 1.601,-5.506 1.601,-9.141l0.102,-27.989c0,-3.743 0.535,-6.095 1.604,-7.057c1.068,-1.122 3.509,-1.685 7.318,-1.685z" class="color c1" id="svg_10"/>
     </g>
    </g>
   </g>
  </g>
  <g transform="translate(-58.5,-86) scale(1.5920532941818237) " id="svg_11">
   <path fill="#84C223" d="m95.16013,78.6188l18.026,0l0,88.167l-18.026,0l0,-88.167zm0,-11.41l18.026,0l0,9.177l-18.026,0l0,-9.177zm0,102.238l18.026,0l0,6.229l-18.026,0l0,-6.229z" class="color c1" id="svg_12"/>
   <path fill="#C4302C" d="m150.62513,90.7948l18.025,0l0,72.927l-18.025,0l0,-72.927zm0,-23.378l18.025,0l0,9.177l-18.025,0l0,-9.177zm0,11.643l18.025,0l0,9.176l-18.025,0l0,-9.176zm0,87.11l18.025,0l0,9.504l-18.025,0l0,-9.504z" class="color c2" id="svg_13"/>
   <path fill="#F8C401" d="m120.95513,84.8548l21.304,0l0,7.703l-21.304,0l0,-7.703zm0,85.739l21.304,0l0,5.08l-21.304,0l0,-5.08zm0,-75.809l21.304,0l0,73.09l-21.304,0l0,-73.09z" class="color c3" id="svg_14"/>
  </g>
  <text fill="#1044a2" stroke-width="0" x="150.45739" y="275.00568" id="svg_15" font-size="60" font-family="Sans-serif" text-anchor="middle" xml:space="preserve" stroke="#000000" font-weight="bold">编 程 中 学</text>
 </g>
</svg>
